<?xml version="1.0" encoding="utf-8"?>
<!-- Generator: Adobe Illustrator 16.0.0, SVG Export Plug-In . SVG Version: 6.00 Build 0)  -->
<!DOCTYPE svg PUBLIC "-//W3C//DTD SVG 1.0//EN" "http://www.w3.org/TR/2001/REC-SVG-20010904/DTD/svg10.dtd">
<svg version="1.0" id="Layer_1" xmlns="http://www.w3.org/2000/svg" xmlns:xlink="http://www.w3.org/1999/xlink" x="0px" y="0px"
	 width="100px" height="100px" viewBox="0 0 100 100" enable-background="new 0 0 100 100" xml:space="preserve">
<path d="M49.142,20c-8.503,0-16.159,3.548-21.618,9.232L27.521,20h-6.663v17.233c0,1.842,1.494,3.333,3.33,3.333l0.003,0.003
	l17.236-0.003v-6.66h-9.153c4.251-4.453,10.228-7.239,16.868-7.239c12.883,0,23.333,10.446,23.333,23.333
	c0,12.885-10.449,23.334-23.333,23.334c-6.442,0-12.275-2.611-16.497-6.836l-4.717,4.713C33.358,76.641,40.858,80,49.142,80
	c16.569,0,30-13.431,30-30C79.143,33.431,65.711,20,49.142,20z"/>
</svg>
